<svg xmlns="http://www.w3.org/2000/svg" viewBox="0 0 289.92 112.49"><title>Hewlett Founddation</title><path class="a" d="M21.06,18.7c.09,0,.16-.09.21-.3a1.8,1.8,0,0,1,.44-1,1.36,1.36,0,0,1,.92-.26h2.07a.61.61,0,0,1,.38.08.53.53,0,0,1,.08.36v8a1.47,1.47,0,0,1-.21.91,1.25,1.25,0,0,1-.81.33c-.17,0-.26.07-.26.15s.08.17.23.17l.53,0,.56,0H26.4a6.62,6.62,0,0,1,.71,0l.39,0c.15,0,.22-.06.22-.17s-.09-.15-.27-.18a1.08,1.08,0,0,1-1-1.09v-8a.77.77,0,0,1,.09-.46.66.66,0,0,1,.44-.09h2.2a1.6,1.6,0,0,1,.88.17,1.15,1.15,0,0,1,.33.72q0,.25.19.24c.12,0,.17-.09.17-.25s0-.21,0-.38a4.15,4.15,0,0,1,0-.67,1,1,0,0,0-.09-.55c-.06-.06-.24-.09-.52-.09H21.57a.42.42,0,0,0-.35.11.9.9,0,0,0-.08.47,4.65,4.65,0,0,1-.12.93,3.49,3.49,0,0,0-.09.6C20.92,18.63,21,18.7,21.06,18.7Z"/><path class="a" d="M34,16.55a1.47,1.47,0,0,1,.92.41,1.53,1.53,0,0,1,.26,1v6.73A6.33,6.33,0,0,1,35,26.22a.64.64,0,0,1-.47.52l-.39.09c-.14,0-.2.09-.2.18s.06.15.19.15l.49,0,.49,0,.52,0h.66a7.4,7.4,0,0,1,.94,0l.38,0c.16,0,.23-.05.23-.16s-.11-.18-.3-.2a1.38,1.38,0,0,1-1-.41,1.92,1.92,0,0,1-.26-1.14V22.37c0-.24,0-.4.11-.46a1,1,0,0,1,.56-.09h4.61a1,1,0,0,1,.47.06s.07.19.07.43V25.5c0,.8-.27,1.25-.82,1.34-.17,0-.26.08-.26.18s.06.16.19.15l.54,0,.38,0,.59,0h.58a5.82,5.82,0,0,1,.78,0,2.76,2.76,0,0,0,.41,0c.16,0,.23-.06.22-.18s-.09-.13-.25-.15a1.22,1.22,0,0,1-.9-.39,2,2,0,0,1-.23-1.16V17.71a1.42,1.42,0,0,1,.16-.69.61.61,0,0,1,.41-.35l.32-.07q.19,0,.19-.16c0-.1-.06-.15-.19-.15l-.29,0a9.82,9.82,0,0,1-1.18,0,10.37,10.37,0,0,1-1.09-.06l-.53,0c-.13,0-.19,0-.2.13s.07.15.23.18A1.13,1.13,0,0,1,42,17a2.31,2.31,0,0,1,.21,1.15v2.68c0,.15,0,.24-.09.28a.94.94,0,0,1-.44.06H37a1.07,1.07,0,0,1-.58-.09c-.06-.06-.09-.23-.09-.53V17.8a1.44,1.44,0,0,1,.18-.83,1.22,1.22,0,0,1,.71-.38c.14,0,.21-.09.21-.18s-.08-.16-.23-.16l-.33,0a8.11,8.11,0,0,1-1,.06,12.4,12.4,0,0,1-1.43-.07l-.47,0c-.14,0-.2,0-.2.15S33.81,16.53,34,16.55Z"/><path class="a" d="M48.64,16.61a1.05,1.05,0,0,1,1,.39,3.11,3.11,0,0,1,.25,1.51v7.13q0,.94-.56,1.1l-.3.09c-.14,0-.2.1-.2.19s.08.17.25.17l.41-.06A13.55,13.55,0,0,1,51.37,27q1,0,2.48.14l.61,0a2.15,2.15,0,0,0,1.74-.84,2.07,2.07,0,0,0,.57-1.21c0-.14,0-.21-.15-.2s-.12.05-.18.14q-.88,1.39-3.95,1.38a2.63,2.63,0,0,1-1.21-.16q-.24-.17-.24-.83V22.34a.34.34,0,0,1,.13-.31,1.09,1.09,0,0,1,.51-.08h1.73a1.79,1.79,0,0,1,1,.19,1,1,0,0,1,.38.71l0,.22a.19.19,0,0,0,.2.17c.1,0,.15-.07.15-.2s0-.12,0-.23c0-.31,0-.63,0-.95s0-.88.07-1.38c0-.08,0-.14,0-.17s-.05-.21-.15-.21-.17.06-.2.19a1.61,1.61,0,0,1-.23.66,1,1,0,0,1-.55.23,7.09,7.09,0,0,1-1.3.09H51.52c-.22,0-.36,0-.4-.07a.84.84,0,0,1-.07-.44V17.6a.73.73,0,0,1,.14-.54,1.06,1.06,0,0,1,.63-.12H53a7.7,7.7,0,0,1,1.66.12.82.82,0,0,1,.6.47,1.23,1.23,0,0,1,.09.48v.2c0,.16.05.24.15.24a.18.18,0,0,0,.17-.12,3.1,3.1,0,0,0,.08-.56l0-.46c0-.34,0-.55.06-.62a1,1,0,0,0,0-.18c0-.15-.09-.23-.26-.23l-.31,0-.56,0-1.11.06q-.74,0-1.69,0a24.91,24.91,0,0,1-2.69-.12l-.52,0c-.24,0-.35.07-.35.21S48.49,16.61,48.64,16.61Z"/><path class="a" d="M66,16.69l.32.07a1.36,1.36,0,0,1,.8.52,6.82,6.82,0,0,1,.74,1.48l.2.52L71.33,27c.17.4.31.61.45.61s.19-.1.29-.33l2-4.67L76,27.17c.11.25.22.38.33.38s.27-.15.4-.43l.12-.23.17-.4.37-.85L78,24.15,78.94,22q.31-.69.89-2.08c.38-.88.65-1.51.83-1.9l.43-.93a.87.87,0,0,1,.48-.47c.15-.06.23-.14.23-.23a.15.15,0,0,0-.17-.17l-.37,0a9.52,9.52,0,0,1-1.07,0c-.41,0-.72,0-.94,0H79.1c-.15,0-.23.05-.23.16s.12.2.37.25q.66.14.66.51A14,14,0,0,1,79,20q-.89,2.33-1.91,4.61c-.1.21-.16.35-.19.43-.1.24-.19.36-.26.36s-.2-.21-.38-.62L74.7,21,76,18a7.18,7.18,0,0,1,.5-1,.84.84,0,0,1,.44-.28c.18,0,.27-.12.27-.21s-.08-.19-.23-.19l-.32,0a6.72,6.72,0,0,1-.76,0l-.8,0h-.3c-.18,0-.27.05-.27.15s.13.21.38.25.52.21.52.46a8.89,8.89,0,0,1-.9,2.62l-.16.36-.83-2a3,3,0,0,1-.28-1,.53.53,0,0,1,.38-.5c.17-.07.26-.14.26-.22s-.09-.18-.28-.18l-.34,0a7.57,7.57,0,0,1-.78,0l-1.52,0h-.3c-.21,0-.33.05-.33.15s.2.23.63.28a1,1,0,0,1,.62.28,5.11,5.11,0,0,1,.56,1.06l.65,1.52.7,1.63.19.47-1.34,3.15,0,.09c-.07.17-.13.25-.17.25s-.08-.06-.13-.17l-.09-.16-.17-.38-.76-1.69c-.16-.36-.42-1-.79-1.93s-.67-1.63-.84-2a6,6,0,0,1-.57-1.69c0-.21.16-.36.49-.46.12,0,.17-.1.17-.2s-.07-.19-.21-.19l-.49,0-.66,0h-1a6.53,6.53,0,0,1-.79,0h-.2c-.16,0-.23.06-.23.18A.18.18,0,0,0,66,16.69Z"/><path class="a" d="M84.88,16.63a1.35,1.35,0,0,1,1,.46,2.61,2.61,0,0,1,.22,1.31V25.1a3.19,3.19,0,0,1-.17,1.31,1,1,0,0,1-.77.41q-.24,0-.24.18c0,.11.07.16.21.16l.37,0,.92-.06,1.14,0a6.87,6.87,0,0,1,.83,0l.3,0c.16,0,.24-.06.24-.18s-.13-.16-.39-.19a1.72,1.72,0,0,1-.73-.23,1.23,1.23,0,0,1-.39-.57,5,5,0,0,1-.13-1.45V18.66q0-1.66.58-1.87l.41-.16c.14,0,.2-.11.2-.21s-.07-.15-.21-.15H88l-.53,0-1,0A13.22,13.22,0,0,1,85,16.28h-.14c-.16,0-.23.06-.23.17S84.72,16.6,84.88,16.63Z"/><path class="a" d="M92.55,16.64l.35.07q.85.17.84,1.22V25.3a2.26,2.26,0,0,1-.19,1.07,1.2,1.2,0,0,1-.73.48c-.14,0-.21.1-.21.18s.07.14.2.14l.44,0A11.6,11.6,0,0,1,94.86,27q.83,0,1.58.06l.84.06.58,0a2.63,2.63,0,0,0,2.19-.85,2.12,2.12,0,0,0,.51-1.13c0-.1,0-.16-.12-.16s-.15.07-.22.21a2.23,2.23,0,0,1-1.38.92,8.27,8.27,0,0,1-2.54.35,2.21,2.21,0,0,1-1.18-.17c-.12-.12-.18-.49-.18-1.11V18.14c0-.82.24-1.29.7-1.4l.27-.06c.15,0,.23-.11.23-.22s-.06-.11-.19-.11h-.34q-.59,0-1.31,0c-.44,0-.84,0-1.2,0l-.49,0c-.18,0-.26.06-.26.17S92.43,16.62,92.55,16.64Z"/><path class="a" d="M103.72,16.64l.35.07q.85.17.84,1.22V25.3a2.27,2.27,0,0,1-.19,1.07,1.2,1.2,0,0,1-.73.48c-.14,0-.21.1-.21.18s.07.14.2.14l.44,0A11.61,11.61,0,0,1,106,27q.83,0,1.58.06l.84.06.58,0a2.62,2.62,0,0,0,2.19-.85,2.13,2.13,0,0,0,.51-1.13c0-.1,0-.16-.12-.16s-.14.07-.22.21a2.23,2.23,0,0,1-1.38.92,8.26,8.26,0,0,1-2.54.35,2.21,2.21,0,0,1-1.18-.17q-.18-.17-.18-1.11V18.14c0-.82.24-1.29.71-1.4l.27-.06c.15,0,.23-.11.23-.22s-.06-.11-.19-.11h-.34q-.59,0-1.31,0c-.44,0-.84,0-1.2,0l-.49,0c-.18,0-.26.06-.26.17S103.6,16.62,103.72,16.64Z"/><path class="a" d="M114.91,16.63a1.35,1.35,0,0,1,1,.46,2.61,2.61,0,0,1,.22,1.31V25.1a3.14,3.14,0,0,1-.17,1.31,1,1,0,0,1-.77.41q-.24,0-.24.18c0,.11.07.16.21.16l.38,0,.92-.06,1.13,0a6.84,6.84,0,0,1,.83,0l.3,0c.16,0,.24-.06.24-.18s-.13-.16-.39-.19a1.72,1.72,0,0,1-.72-.23,1.23,1.23,0,0,1-.39-.57,5,5,0,0,1-.13-1.45V18.66q0-1.66.58-1.87l.41-.16c.14,0,.2-.11.2-.21s-.07-.15-.21-.15h-.19l-.52,0c-.28,0-.61,0-1,0a13.27,13.27,0,0,1-1.52-.07h-.14c-.16,0-.23.06-.23.17S114.75,16.6,114.91,16.63Z"/><path class="a" d="M122.57,27.14l.44,0h.35l.87,0,.75,0h.27c.15,0,.22,0,.22-.13s-.09-.15-.24-.18a1.69,1.69,0,0,1-.72-.28.68.68,0,0,1-.18-.53,3.3,3.3,0,0,1,.35-1.18l.51-1.15a1.72,1.72,0,0,1,.38-.63,1.63,1.63,0,0,1,.72-.09h2.83a1.22,1.22,0,0,1,.53.07,1.35,1.35,0,0,1,.26.5l.39,1a6,6,0,0,1,.48,1.66.47.47,0,0,1-.39.53l-.24.06c-.13,0-.2.08-.2.16s.07.16.2.16l.24,0a11.19,11.19,0,0,1,1.36,0q1,0,1.45,0h.3c.14,0,.21,0,.22-.13s-.07-.16-.24-.19a2,2,0,0,1-1-.36,3.77,3.77,0,0,1-.61-1.18l-.17-.42-3.37-8.63c-.06-.15-.13-.23-.21-.23s-.16.08-.23.23l-4,8.94-.23.52a3.58,3.58,0,0,1-.44.69,1.1,1.1,0,0,1-.42.38l-.29.09a.17.17,0,0,0-.13.17C122.36,27.09,122.43,27.14,122.57,27.14ZM126,21.73l1.53-3.39c0-.1.09-.15.13-.15s.14.09.2.26l.06.16,1.23,3.1,0,.14a.7.7,0,0,1,0,.18c0,.13-.13.2-.39.2H126.3c-.24,0-.36-.07-.36-.2A1,1,0,0,1,126,21.73Z"/><path class="a" d="M136.27,16.68a1.65,1.65,0,0,1,1.23.83,4.44,4.44,0,0,1,.37,2.07q0,.65-.12,3.12L137.64,25a3.29,3.29,0,0,1-.27,1.36,1.16,1.16,0,0,1-.8.53c-.12,0-.19.08-.19.17s.08.17.23.17l.24,0A8.06,8.06,0,0,1,138,27.1q.48,0,1.35.08l.29,0q.23,0,.23-.18c0-.1-.16-.18-.48-.23q-1-.15-1-1.53t0-1.91l.18-3.87,2.94,6.35.16.33.22.43c.11.26.23.38.36.38s.23-.12.33-.37l.14-.3q.18-.35.42-.9l.66-1.47.8-1.64.7-1.49q.22-.45.89-1.62l.2,5,0,1.28a2.21,2.21,0,0,1-.16,1,.94.94,0,0,1-.62.41c-.13,0-.2.1-.2.18s.08.14.23.14l.94,0,.77,0c.24,0,.45,0,.66,0l.61.06h.19c.19,0,.29-.05.29-.15s-.14-.17-.41-.21a1.28,1.28,0,0,1-.8-.35,1.32,1.32,0,0,1-.22-.86l0-1-.15-4.26,0-1.89a3.78,3.78,0,0,1,.16-1.3.77.77,0,0,1,.56-.49l.34-.09a.18.18,0,0,0,.16-.18.13.13,0,0,0-.16-.15h-.23a7.59,7.59,0,0,1-.79,0h-.26l-.35,0a.29.29,0,0,0-.21.06,1.4,1.4,0,0,0-.18.31l-3.68,7.88-.07.16-.09.21c0,.1-.09.15-.12.15s-.07-.07-.12-.2L142,24l-3.26-7-.08-.18c-.15-.33-.34-.49-.56-.49l-.29,0h-1.35l-.26,0c-.13,0-.2.06-.2.17S136.12,16.65,136.27,16.68Z"/><path class="a" d="M158.35,27.14l.44,0h.35l.87,0,.75,0H161c.15,0,.22,0,.22-.13s-.09-.15-.24-.18a1.7,1.7,0,0,1-.72-.28.68.68,0,0,1-.19-.53,3.35,3.35,0,0,1,.35-1.18L161,23.7a1.69,1.69,0,0,1,.37-.63,1.64,1.64,0,0,1,.72-.09h2.83a1.22,1.22,0,0,1,.53.07,1.36,1.36,0,0,1,.26.5l.39,1a6,6,0,0,1,.48,1.66.47.47,0,0,1-.39.53l-.24.06c-.13,0-.19.08-.19.16s.07.16.2.16l.24,0a11.18,11.18,0,0,1,1.36,0c.69,0,1.18,0,1.45,0h.3c.14,0,.21,0,.22-.13s-.07-.16-.24-.19a2,2,0,0,1-1-.36,3.79,3.79,0,0,1-.61-1.18l-.17-.42-3.37-8.63c-.06-.15-.13-.23-.21-.23s-.16.08-.23.23l-4,8.94-.23.52a3.54,3.54,0,0,1-.44.69,1.11,1.11,0,0,1-.42.38l-.29.09a.17.17,0,0,0-.13.17C158.14,27.09,158.22,27.14,158.35,27.14Zm3.48-5.41,1.53-3.39c0-.1.09-.15.13-.15s.14.09.2.26l.06.16,1.23,3.1,0,.14a.72.72,0,0,1,0,.18c0,.13-.13.2-.39.2h-2.58c-.24,0-.36-.07-.36-.2A.92.92,0,0,1,161.83,21.73Z"/><path class="a" d="M171.9,16.6a1.62,1.62,0,0,1,1.24.89,4.45,4.45,0,0,1,.43,2.13V25a2.45,2.45,0,0,1-.23,1.23,1.6,1.6,0,0,1-.89.61c-.15.05-.22.11-.22.19s.08.15.22.15l.29,0a4.42,4.42,0,0,1,.58,0h.38l.8,0,.68,0h.23c.11,0,.16-.05.16-.15s-.09-.18-.26-.2a1.62,1.62,0,0,1-.83-.29,1.11,1.11,0,0,1-.26-.71l0-.56V19.59c0-.23,0-.35.15-.35a.15.15,0,0,1,.11,0l.08.09,6.6,7.55.17.2a.27.27,0,0,0,.18.07.2.2,0,0,0,.22-.18,7.61,7.61,0,0,0,0-1.08V18a2.34,2.34,0,0,1,.15-1,.93.93,0,0,1,.63-.39c.11,0,.16-.08.16-.15s-.08-.16-.22-.16a2.24,2.24,0,0,0-.38,0,5.05,5.05,0,0,1-.78,0c-.61,0-1.09,0-1.45-.06l-.33,0c-.15,0-.23,0-.23.14s.08.17.23.19a2.24,2.24,0,0,1,1.11.41,1.46,1.46,0,0,1,.39.94l.09,1.8v4.93c0,.09,0,.14-.08.15s-.1-.06-.22-.19l-7.2-8.16a.54.54,0,0,0-.39-.23h-.41l-.52,0h-.45c-.12,0-.17,0-.17.14S171.75,16.58,171.9,16.6Z"/><path class="a" d="M186.79,16.65a1.18,1.18,0,0,1,.89.43,2,2,0,0,1,.26,1.16V25.3a2.75,2.75,0,0,1-.16,1.15,1,1,0,0,1-.69.39c-.14,0-.22.09-.22.18s.09.19.27.18l.45,0a10.84,10.84,0,0,1,1.46-.09c.52,0,1.13,0,1.82.07l.72,0a5.83,5.83,0,0,0,3.15-.9,5,5,0,0,0,1.79-2,5.81,5.81,0,0,0,.64-2.72,5.12,5.12,0,0,0-1.46-3.77,6.53,6.53,0,0,0-4.82-1.61c-.38,0-.72,0-1,0l-.73.07c-.29,0-.7,0-1.23,0h-.55l-.62,0c-.14,0-.2,0-.2.15S186.62,16.63,186.79,16.65Zm2.35,1a.78.78,0,0,1,.2-.64,2.93,2.93,0,0,1,1.57-.27,4.93,4.93,0,0,1,2.95.87,4.73,4.73,0,0,1,1.56,1.94,6.41,6.41,0,0,1,.57,2.7,4.15,4.15,0,0,1-1.81,3.83,4.44,4.44,0,0,1-2.41.67,6.19,6.19,0,0,1-1.09-.12,6.05,6.05,0,0,1-1.06-.27.66.66,0,0,1-.48-.66Z"/><path class="a" d="M207.5,16.6a2,2,0,0,1,.65.13.88.88,0,0,1,.34.36,2.22,2.22,0,0,1,.24,1.14v7.06a2.34,2.34,0,0,1-.18,1.08,1,1,0,0,1-.68.42c-.16,0-.24.09-.24.18s.08.14.23.14l.4,0,.53,0h1.15a6.13,6.13,0,0,1,.77,0l.48,0c.17,0,.24-.06.24-.18s-.1-.15-.28-.15a1.13,1.13,0,0,1-.88-.37,1.44,1.44,0,0,1-.33-1V22.53a2.08,2.08,0,0,1,0-.47c0-.1.12-.16.31-.18a11.46,11.46,0,0,1,1.21,0A6.72,6.72,0,0,1,213,22a.61.61,0,0,1,.37.21,1.63,1.63,0,0,1,.2.56c.06.26.14.38.24.38s.14-.06.14-.19a2,2,0,0,0,0-.22c0-.17,0-.55,0-1.16,0-.22,0-.38,0-.48l0-.77c0-.16,0-.24-.14-.24s-.14.06-.16.19a1,1,0,0,1-.41.74,1.94,1.94,0,0,1-1,.22h-1.85c-.28,0-.42-.07-.44-.21V17.56c0-.31.07-.51.21-.58a3,3,0,0,1,1.08-.11c.45,0,.82,0,1.11,0l.92.09a1.54,1.54,0,0,1,.68.16,1,1,0,0,1,.25.51,3.42,3.42,0,0,1,.08.49c0,.13.06.2.14.2s.21-.12.21-.36a5.58,5.58,0,0,1,.13-1.37,1.3,1.3,0,0,0,0-.26c0-.12-.06-.18-.17-.18l-.26,0a8.09,8.09,0,0,1-.91.07l-1.09.06c-.28,0-.92,0-1.9,0s-1.89,0-2.36-.07l-.49,0c-.22,0-.33.07-.31.2S207.38,16.59,207.5,16.6Z"/><path class="a" d="M218.26,16.64l.35.07c.56.12.84.52.84,1.22V25.3a2.27,2.27,0,0,1-.19,1.07,1.21,1.21,0,0,1-.73.48c-.14,0-.21.1-.21.18s.06.14.2.14l.44,0a11.64,11.64,0,0,1,1.62-.09q.83,0,1.57.06l.85.06.58,0a2.62,2.62,0,0,0,2.19-.85,2.12,2.12,0,0,0,.51-1.13c0-.1,0-.16-.12-.16s-.15.07-.22.21a2.23,2.23,0,0,1-1.38.92,8.28,8.28,0,0,1-2.54.35,2.23,2.23,0,0,1-1.18-.17q-.18-.17-.18-1.11V18.14c0-.82.23-1.29.71-1.4l.27-.06c.15,0,.23-.11.23-.22s-.06-.11-.19-.11h-.34c-.39,0-.82,0-1.3,0s-.84,0-1.2,0l-.49,0c-.18,0-.27.06-.27.17S218.14,16.62,218.26,16.64Z"/><path class="a" d="M234.82,27.27a5.44,5.44,0,0,0,4-1.6,5.6,5.6,0,0,0,1.58-4.11,5.16,5.16,0,0,0-1.57-3.88,5.56,5.56,0,0,0-4-1.51,6.29,6.29,0,0,0-2.31.44,5.27,5.27,0,0,0-1.86,1.19,5.17,5.17,0,0,0-1.11,1.77,5.85,5.85,0,0,0-.41,2.14,5.39,5.39,0,0,0,1.56,4A5.59,5.59,0,0,0,234.82,27.27Zm-3.35-9.37a3.64,3.64,0,0,1,2.89-1.22,4.59,4.59,0,0,1,3.54,1.56,5.58,5.58,0,0,1,1.42,3.9,4.85,4.85,0,0,1-1.18,3.36,3.85,3.85,0,0,1-3,1.33,4.22,4.22,0,0,1-3.36-1.63,6,6,0,0,1-1.37-4A4.82,4.82,0,0,1,231.47,17.9Z"/><path class="a" d="M244.32,16.66l.37.06c.57.09.85.55.85,1.36l0,.82v5.63a5.17,5.17,0,0,1-.2,1.78,1,1,0,0,1-.82.57c-.13,0-.2.08-.2.15s.06.16.2.16l.42,0a6.43,6.43,0,0,1,.64,0h1.16c.45,0,.78,0,1,0l.46,0c.18,0,.27,0,.26-.15s-.1-.16-.29-.18a2,2,0,0,1-1-.34.86.86,0,0,1-.32-.44,4.17,4.17,0,0,1-.07-.92V22.38c0-.13,0-.21.1-.25l.17,0h1a.65.65,0,0,1,.61.32l.11.17,1.95,3a4.66,4.66,0,0,0,1.14,1.27,2.18,2.18,0,0,0,1.26.39,2.83,2.83,0,0,0,.77-.1c.23-.06.34-.13.35-.21s0-.11-.13-.11h-.25q-.85-.05-1.85-1.52l-.25-.37-2.16-3.19A3,3,0,0,0,251.55,19a2.35,2.35,0,0,0-.91-2,4.54,4.54,0,0,0-2.72-.68c-.32,0-.69,0-1.11,0-.58,0-1,.06-1.23.06l-.7,0-.55,0c-.18,0-.27.05-.27.16S244.16,16.63,244.32,16.66Zm2.6.3a1,1,0,0,1,.64-.15,2.9,2.9,0,0,1,2,.73,2.43,2.43,0,0,1,.8,1.87,2,2,0,0,1-.59,1.55,2.24,2.24,0,0,1-1.62.57h-.89a.71.71,0,0,1-.46-.1.72.72,0,0,1-.1-.47V17.51A.7.7,0,0,1,246.93,17Z"/><path class="a" d="M256.38,27.14l.44,0h.35l.87,0,.75,0h.27c.15,0,.22,0,.22-.13s-.09-.15-.24-.18a1.7,1.7,0,0,1-.72-.28.68.68,0,0,1-.18-.53,3.3,3.3,0,0,1,.35-1.18L259,23.7a1.7,1.7,0,0,1,.38-.63,1.64,1.64,0,0,1,.72-.09h2.84a1.22,1.22,0,0,1,.53.07,1.39,1.39,0,0,1,.26.5l.39,1a6,6,0,0,1,.48,1.66.47.47,0,0,1-.39.53l-.24.06c-.13,0-.19.08-.19.16s.07.16.2.16l.24,0a11.24,11.24,0,0,1,1.36,0c.69,0,1.18,0,1.45,0h.3c.14,0,.21,0,.22-.13s-.07-.16-.24-.19a2,2,0,0,1-1-.36,3.78,3.78,0,0,1-.61-1.18l-.17-.42-3.37-8.63c-.06-.15-.13-.23-.21-.23s-.16.08-.23.23l-4,8.94-.23.52a3.47,3.47,0,0,1-.44.69,1.09,1.09,0,0,1-.42.38l-.29.09a.16.16,0,0,0-.13.17C256.17,27.09,256.24,27.14,256.38,27.14Zm3.48-5.41,1.53-3.39c0-.1.09-.15.13-.15s.14.09.2.26l.06.16,1.23,3.1,0,.14a.65.65,0,0,1,0,.18c0,.13-.13.2-.39.2h-2.58c-.24,0-.36-.07-.36-.2A.93.93,0,0,1,259.86,21.73Z"/><path class="a" d="M24.7,39.73c-.54-.07-.94-.1-1.19-.12S23,39.73,23,40s.19.37.58.43a3.72,3.72,0,0,1,2.34,1A3.86,3.86,0,0,1,26.56,44V61.05a16.29,16.29,0,0,1-.32,3.9,1.65,1.65,0,0,1-1.19,1.31l-1,.24c-.35.08-.52.23-.52.46s.17.37.5.37q.22,0,1.25-.09c.5,0,.92-.07,1.25-.07l1.31,0,1.67,0a18.67,18.67,0,0,1,2.38.09c.48.06.8.09,1,.09.4,0,.59-.14.57-.41s-.26-.45-.75-.51a3.49,3.49,0,0,1-2.44-1,4.83,4.83,0,0,1-.65-2.9V55.21q0-.93.28-1.16a2.65,2.65,0,0,1,1.41-.23H43a2.44,2.44,0,0,1,1.19.16q.18.16.18,1.09v7.3l0,.78q0,3-2.08,3.4c-.44.06-.66.21-.68.45s.14.4.48.39l1.37-.1c.4,0,.71-.06,1-.06l1.49,0,1.47,0a15.29,15.29,0,0,1,2,.08,7.24,7.24,0,0,0,1,.1c.4,0,.58-.16.56-.47s-.23-.34-.64-.39a3.1,3.1,0,0,1-2.28-1,5.24,5.24,0,0,1-.6-2.94V43.39a3.6,3.6,0,0,1,.42-1.76,1.56,1.56,0,0,1,1-.88l.82-.18c.32-.07.48-.2.48-.41s-.16-.39-.48-.39a6.33,6.33,0,0,0-.73.08,24.65,24.65,0,0,1-3,.12,26.68,26.68,0,0,1-2.78-.14c-.62-.07-1.07-.1-1.35-.1s-.48.11-.5.33.18.39.58.46a2.89,2.89,0,0,1,1.94,1.18,5.88,5.88,0,0,1,.52,2.91v6.79c0,.37-.08.61-.24.72a2.39,2.39,0,0,1-1.11.16H31.29a2.71,2.71,0,0,1-1.46-.22q-.23-.22-.23-1.35V43.6a3.67,3.67,0,0,1,.46-2.1,3.09,3.09,0,0,1,1.79-1q.53-.13.53-.45c0-.27-.19-.41-.57-.41a6.31,6.31,0,0,0-.83.08,20.61,20.61,0,0,1-2.64.16A32.17,32.17,0,0,1,24.7,39.73Z"/><path class="a" d="M63.57,40.59a2.67,2.67,0,0,1,2.43,1,7.92,7.92,0,0,1,.63,3.83V62.21l0,1.29q0,2.39-1.43,2.79l-.75.22c-.34.09-.52.25-.52.46s.21.43.64.43a6.76,6.76,0,0,0,1-.14A34.49,34.49,0,0,1,70.49,67q2.48,0,6.28.36c.65.05,1.16.08,1.55.08a5.46,5.46,0,0,0,4.41-2.14,5.25,5.25,0,0,0,1.45-3.07c0-.36-.12-.53-.37-.52s-.3.13-.45.36q-2.22,3.52-10,3.52a6.68,6.68,0,0,1-3.07-.42q-.6-.42-.6-2.11V55.76l0-.66a.86.86,0,0,1,.33-.8,2.83,2.83,0,0,1,1.3-.2h4.38a4.55,4.55,0,0,1,2.42.48,2.61,2.61,0,0,1,1,1.81l.12.56a.47.47,0,0,0,.51.44c.26,0,.39-.17.39-.49,0-.12,0-.31,0-.57a23.59,23.59,0,0,1-.12-2.4q0-1.58.18-3.51,0-.3,0-.44,0-.52-.39-.53c-.27,0-.44.14-.51.48a4,4,0,0,1-.58,1.67,2.63,2.63,0,0,1-1.39.58,18,18,0,0,1-3.3.24H70.86c-.57,0-.91-.06-1-.19a2.1,2.1,0,0,1-.17-1.11v-8A1.84,1.84,0,0,1,70,41.73a2.67,2.67,0,0,1,1.59-.31h3.11a19.78,19.78,0,0,1,4.22.3,2.09,2.09,0,0,1,1.53,1.19,3.12,3.12,0,0,1,.24,1.21v.52q0,.61.38.59a.45.45,0,0,0,.45-.31,8,8,0,0,0,.2-1.43l.08-1.17q.1-1.31.16-1.58a2.33,2.33,0,0,0,.06-.46q0-.57-.66-.57a6,6,0,0,0-.79.08c-.17,0-.65.05-1.43.08L76.34,40q-1.87.08-4.29.08a62.92,62.92,0,0,1-6.83-.32,11.79,11.79,0,0,0-1.33-.1q-.89,0-.89.54C63,40.47,63.19,40.59,63.57,40.59Z"/><path class="a" d="M97.68,40a16.25,16.25,0,0,1-2-.1l-.5,0c-.4,0-.6.15-.6.47a.47.47,0,0,0,.42.49l.81.18a3.47,3.47,0,0,1,2,1.33,17.33,17.33,0,0,1,1.88,3.76l.52,1.31L108.46,67q.63,1.53,1.14,1.55c.25,0,.49-.26.73-.83l5-11.84,4.94,11.51q.41,1,.85,1t1-1.09l.3-.6.44-1,1-2.17,1.59-3.75,2.38-5.39q.77-1.75,2.24-5.27,1.43-3.34,2.1-4.81l1.09-2.37a2.18,2.18,0,0,1,1.21-1.19c.38-.15.57-.35.57-.58a.38.38,0,0,0-.44-.43,8.34,8.34,0,0,0-.94.09,24.39,24.39,0,0,1-2.71.11q-1.55,0-2.39-.06l-.36,0c-.39,0-.58.14-.58.41s.31.5.93.64q1.69.36,1.69,1.29t-2.25,7q-2.25,5.9-4.86,11.7-.38.8-.5,1.09c-.26.61-.48.92-.65.92s-.52-.52-1-1.57l-4-9.42,3.26-7.69a18.38,18.38,0,0,1,1.26-2.62,2.08,2.08,0,0,1,1.1-.71c.46-.13.69-.31.69-.53s-.2-.47-.59-.47c-.16,0-.43,0-.81.06a18.39,18.39,0,0,1-1.94.08q-1.17,0-2,0l-.77,0q-.69,0-.69.39t1,.64q1.31.24,1.31,1.16,0,1.53-2.29,6.63-.14.3-.4.92l-2.1-5a7.38,7.38,0,0,1-.71-2.45,1.33,1.33,0,0,1,1-1.27c.44-.17.66-.36.66-.57s-.23-.47-.7-.47l-.86.06a19.29,19.29,0,0,1-2,.12l-3.86-.12-.78,0q-.82,0-.84.39t1.59.72a2.38,2.38,0,0,1,1.57.72,13,13,0,0,1,1.43,2.69l1.65,3.86,1.77,4.14.5,1.19-3.41,8-.1.24c-.19.43-.33.64-.42.64s-.19-.15-.34-.44l-.24-.42q-.12-.24-.44-1l-1.94-4.3q-.6-1.35-2-4.9t-2.14-5.15a15.14,15.14,0,0,1-1.45-4.3q0-.8,1.25-1.15c.29-.09.44-.26.44-.51s-.18-.49-.54-.49L101.8,40l-1.67,0Z"/><path class="a" d="M146.64,39.84c-.45,0-.67.15-.67.44s.16.33.48.39l.89.18q2.15.44,2.14,3.08V61.71l0,.92a5.7,5.7,0,0,1-.47,2.71,3,3,0,0,1-1.85,1.22c-.36.1-.54.26-.54.46s.17.36.5.35.65-.05,1.11-.12a29.52,29.52,0,0,1,4.09-.24q2.11,0,4,.14l2.15.16q.83.06,1.47.06,3.84,0,5.55-2.16a5.4,5.4,0,0,0,1.29-2.87c0-.27-.09-.4-.3-.4s-.37.18-.56.54q-.75,1.45-3.49,2.33a21,21,0,0,1-6.46.88q-2.53,0-3-.44c-.31-.29-.46-1.23-.46-2.83l0-.7V44.47q0-3.12,1.79-3.56l.7-.16c.38-.09.57-.28.57-.56s-.16-.29-.48-.29l-.85,0q-1.49.1-3.31.1t-3-.12C147.36,39.86,146.95,39.84,146.64,39.84Z"/><path class="a" d="M185.12,65.19q-.61-.42-.61-2.11V55.76l0-.66a.86.86,0,0,1,.33-.8,2.83,2.83,0,0,1,1.3-.2h4.38a4.55,4.55,0,0,1,2.42.48,2.61,2.61,0,0,1,1,1.81L194,57a.47.47,0,0,0,.51.44c.26,0,.39-.17.39-.49,0-.12,0-.31,0-.57a23.58,23.58,0,0,1-.12-2.4q0-1.58.18-3.51c0-.2,0-.34,0-.44q0-.52-.39-.53c-.27,0-.44.14-.51.48a4,4,0,0,1-.57,1.67,2.64,2.64,0,0,1-1.39.58,18,18,0,0,1-3.3.24h-3.06c-.57,0-.91-.06-1-.19a2.1,2.1,0,0,1-.17-1.11v-8a1.84,1.84,0,0,1,.36-1.36,2.68,2.68,0,0,1,1.59-.31h3.11a19.78,19.78,0,0,1,4.22.3,2.09,2.09,0,0,1,1.52,1.19,3.11,3.11,0,0,1,.24,1.21v.52c0,.41.13.61.39.59a.45.45,0,0,0,.44-.31,7.92,7.92,0,0,0,.2-1.43l.08-1.17c.06-.87.12-1.4.16-1.58a2.24,2.24,0,0,0,.06-.46q0-.57-.66-.57a6,6,0,0,0-.79.08c-.17,0-.65.05-1.43.08l-2.82.14q-1.87.08-4.29.08a62.93,62.93,0,0,1-6.83-.32,11.78,11.78,0,0,0-1.33-.1q-.89,0-.89.54c0,.25.19.37.58.37a2.66,2.66,0,0,1,2.43,1,7.91,7.91,0,0,1,.63,3.83V62.21l0,1.29q0,2.39-1.43,2.79l-.75.22c-.35.09-.52.25-.52.46s.21.43.63.43a6.77,6.77,0,0,0,1-.14,34.45,34.45,0,0,1,4.91-.24q2.48,0,6.28.36c.65.05,1.16.08,1.55.08a5.45,5.45,0,0,0,4.41-2.14A5.25,5.25,0,0,0,199,62.25c0-.36-.12-.53-.37-.52s-.3.13-.45.36q-2.22,3.52-10,3.52A6.66,6.66,0,0,1,185.12,65.19Z"/><path class="a" d="M222.42,67.18l1.45,0a15.94,15.94,0,0,1,1.79.06,7.81,7.81,0,0,0,1,.12q.56,0,.56-.43t-.69-.45a2.75,2.75,0,0,1-2.6-2.77l0-.77V43.47a1.91,1.91,0,0,1,.23-1.17,1.65,1.65,0,0,1,1.1-.24h5.58a4.07,4.07,0,0,1,2.24.43,2.92,2.92,0,0,1,.83,1.84q.12.63.48.62t.42-.63q0-.3-.12-1a10.29,10.29,0,0,1-.1-1.7,2.5,2.5,0,0,0-.23-1.41c-.15-.16-.59-.24-1.32-.24H211.61a1.06,1.06,0,0,0-.88.29,2.29,2.29,0,0,0-.21,1.2,12,12,0,0,1-.3,2.36,8.73,8.73,0,0,0-.24,1.52q0,.52.36.53t.54-.75A4.59,4.59,0,0,1,212,42.7a3.47,3.47,0,0,1,2.33-.65h5.26a1.53,1.53,0,0,1,1,.2,1.34,1.34,0,0,1,.21.91l0,.52V63.4a3.74,3.74,0,0,1-.54,2.32,3.18,3.18,0,0,1-2.07.85c-.44.05-.66.18-.66.39s.2.43.6.43q.2,0,1.33-.12.58-.06,1.41-.06Z"/><path class="a" d="M244,45.89c.24,0,.42-.24.54-.75a4.6,4.6,0,0,1,1.12-2.43,3.46,3.46,0,0,1,2.33-.65h5.26a1.53,1.53,0,0,1,1,.2,1.34,1.34,0,0,1,.21.91l0,.52V63.4a3.74,3.74,0,0,1-.54,2.32,3.18,3.18,0,0,1-2.07.85c-.44.05-.66.18-.66.39s.2.43.6.43q.2,0,1.33-.12c.38,0,.86-.06,1.41-.06l1.55,0,1.45,0a15.91,15.91,0,0,1,1.79.06,7.79,7.79,0,0,0,1,.12q.56,0,.56-.43t-.69-.45a2.75,2.75,0,0,1-2.6-2.77l0-.77V43.47a1.89,1.89,0,0,1,.23-1.17,1.65,1.65,0,0,1,1.1-.24h5.58a4.06,4.06,0,0,1,2.24.43,2.91,2.91,0,0,1,.84,1.84q.12.63.48.62c.29,0,.43-.24.42-.63,0-.2-.05-.52-.12-1a10.65,10.65,0,0,1-.1-1.7,2.51,2.51,0,0,0-.23-1.41q-.23-.24-1.32-.24H245.28a1.06,1.06,0,0,0-.89.29,2.3,2.3,0,0,0-.21,1.2,12.13,12.13,0,0,1-.3,2.36,8.73,8.73,0,0,0-.24,1.52C243.65,45.7,243.77,45.88,244,45.89Z"/><path class="a" d="M33.9,78.8a2.15,2.15,0,0,0-.42.05A13.72,13.72,0,0,1,32,79l-1.78.09q-.69,0-3.11,0-2.72,0-3.86-.12l-.8-.06c-.36,0-.53.11-.51.32s.12.21.32.23a3.24,3.24,0,0,1,1.06.22,1.45,1.45,0,0,1,.56.59,3.63,3.63,0,0,1,.4,1.87V93.72A3.82,3.82,0,0,1,24,95.49a1.59,1.59,0,0,1-1.11.69c-.27.06-.4.15-.4.29s.13.23.37.23l.66,0c.37,0,.66-.05.87-.05h1l.89,0a10.06,10.06,0,0,1,1.26.06c.33,0,.59.06.78.06s.4-.1.38-.29-.16-.25-.45-.25a1.84,1.84,0,0,1-1.45-.61A2.35,2.35,0,0,1,26.24,94V89.18a3.41,3.41,0,0,1,.06-.77c0-.15.2-.25.51-.29a17.65,17.65,0,0,1,2-.07,10.93,10.93,0,0,1,2.52.22,1,1,0,0,1,.6.35,2.68,2.68,0,0,1,.33.92q.14.63.39.63c.16,0,.24-.1.24-.31s0-.2,0-.36-.05-.91-.05-1.9c0-.36,0-.62,0-.78l.08-1.27c0-.26-.06-.4-.22-.4s-.23.1-.26.31a1.69,1.69,0,0,1-.68,1.21A3.2,3.2,0,0,1,30,87L28.5,87h-.42L27,87q-.67,0-.73-.35V81q0-.77.35-1a4.88,4.88,0,0,1,1.78-.19c.73,0,1.34,0,1.81.07l1.51.15a2.51,2.51,0,0,1,1.11.26,1.55,1.55,0,0,1,.42.84,5.61,5.61,0,0,1,.14.81c0,.21.09.32.22.32s.34-.2.34-.59a9.23,9.23,0,0,1,.22-2.24,2,2,0,0,0,.06-.42C34.19,78.9,34.09,78.8,33.9,78.8Z"/><path class="a" d="M49.05,79.47a8.61,8.61,0,0,0-3.05,2,8.45,8.45,0,0,0-1.81,2.9,9.63,9.63,0,0,0-.67,3.5,8.82,8.82,0,0,0,2.56,6.58,9.15,9.15,0,0,0,6.7,2.51A8.9,8.9,0,0,0,59.4,94.3,9.18,9.18,0,0,0,62,87.58a8.43,8.43,0,0,0-2.57-6.35,9.08,9.08,0,0,0-6.58-2.48A10.28,10.28,0,0,0,49.05,79.47Zm11.06,9A7.94,7.94,0,0,1,58.18,94a6.3,6.3,0,0,1-4.91,2.17,6.92,6.92,0,0,1-5.5-2.66A9.82,9.82,0,0,1,45.53,87a7.92,7.92,0,0,1,1.75-5.4,6,6,0,0,1,4.73-2,7.5,7.5,0,0,1,5.79,2.55A9.13,9.13,0,0,1,60.12,88.52Z"/><path class="a" d="M86.63,79a8.2,8.2,0,0,0-.82-.1c-.17,0-.26.08-.26.26s.12.25.37.28a1.93,1.93,0,0,1,1.56.83A4.46,4.46,0,0,1,88,82.57V89.2a7.3,7.3,0,0,1-1.51,5,5.86,5.86,0,0,1-4.57,1.67q-3.42,0-4.86-2-1-1.41-1-4.71V82.75l0-.85a4.14,4.14,0,0,1,.25-1.72,1.38,1.38,0,0,1,1-.65c.27-.05.41-.15.41-.31s-.1-.2-.3-.2l-.65,0-.72.05H74l-.86,0-.89,0c-.33,0-.49.1-.49.3s.12.23.35.26a2.22,2.22,0,0,1,1.52.69A3.4,3.4,0,0,1,74,82.2l0,.73v6.51a9,9,0,0,0,.91,4.35,5.61,5.61,0,0,0,2.55,2.29,8.89,8.89,0,0,0,3.92.84,8.78,8.78,0,0,0,3.52-.71,6.06,6.06,0,0,0,2.53-1.9,8.93,8.93,0,0,0,1.4-5.38V82.58a6.85,6.85,0,0,1,.23-2.18,1.7,1.7,0,0,1,1-.9c.18-.08.27-.18.27-.3s-.08-.22-.24-.22l-.56,0q-.33,0-1.77,0A7.61,7.61,0,0,1,86.63,79Z"/><path class="a" d="M117.59,78.94A3.58,3.58,0,0,0,117,79a8.37,8.37,0,0,1-1.27.08,23.58,23.58,0,0,1-2.37-.09l-.54,0c-.25,0-.37.08-.37.24s.13.27.37.31a3.71,3.71,0,0,1,1.83.67,2.4,2.4,0,0,1,.64,1.54l.15,2.95v8.08c0,.15-.06.23-.14.24s-.17-.09-.36-.31L103.09,79.34a.89.89,0,0,0-.64-.37h-.68l-.86,0h-.73c-.19,0-.28.08-.28.24s.12.26.35.29a2.65,2.65,0,0,1,2,1.46,7.26,7.26,0,0,1,.71,3.5v8.72a4,4,0,0,1-.38,2,2.62,2.62,0,0,1-1.45,1c-.25.08-.37.19-.36.31s.14.24.36.24a3.66,3.66,0,0,0,.47,0,7.33,7.33,0,0,1,.95-.06l.62,0,1.31.06,1.11.08.39,0c.18,0,.27-.08.27-.25s-.14-.29-.42-.33a2.67,2.67,0,0,1-1.36-.47,1.84,1.84,0,0,1-.44-1.17l0-.91V84.37q0-.58.24-.58a.25.25,0,0,1,.18.08l.13.14,10.81,12.36.28.33a.46.46,0,0,0,.3.12.33.33,0,0,0,.36-.3,13.37,13.37,0,0,0,.06-1.76V84l0-.85V81.77a3.86,3.86,0,0,1,.25-1.68,1.52,1.52,0,0,1,1-.64c.18-.05.26-.13.26-.24S117.81,78.94,117.59,78.94Z"/><path class="a" d="M132.66,79q-.72.06-2,.06h-.9l-1-.05c-.22,0-.33.08-.33.25s.14.24.42.26a1.92,1.92,0,0,1,1.45.71,3.28,3.28,0,0,1,.44,1.9V93.71a4.51,4.51,0,0,1-.26,1.89,1.57,1.57,0,0,1-1.13.64c-.24.05-.36.15-.36.29s.15.3.45.29.42,0,.73-.08a17.57,17.57,0,0,1,2.38-.14q1.27,0,3,.12.85.06,1.18.06a9.55,9.55,0,0,0,5.15-1.47,8.06,8.06,0,0,0,2.92-3.19,9.5,9.5,0,0,0,1.05-4.45,8.38,8.38,0,0,0-2.4-6.17q-2.63-2.64-7.88-2.64c-.61,0-1.18,0-1.69.06Zm2.92.62a8.07,8.07,0,0,1,4.83,1.42A7.75,7.75,0,0,1,143,84.24a10.49,10.49,0,0,1,.93,4.43q0,4.43-3,6.27A7.28,7.28,0,0,1,137,96a10.38,10.38,0,0,1-1.79-.19,10.52,10.52,0,0,1-1.73-.45,1.08,1.08,0,0,1-.78-1.08V81.13a1.28,1.28,0,0,1,.33-1A4.78,4.78,0,0,1,135.58,79.65Z"/><path class="a" d="M168.66,92.93l-5.51-14.12c-.09-.25-.21-.37-.35-.37s-.26.13-.37.38l-6.59,14.64-.37.85a5.87,5.87,0,0,1-.72,1.13,1.81,1.81,0,0,1-.69.62l-.47.14a.27.27,0,0,0-.22.28c0,.16.12.24.35.24l.72-.07.58,0c.54,0,1,0,1.42,0l1.23.07.43,0c.25,0,.37-.07.36-.21s-.14-.25-.4-.3a2.77,2.77,0,0,1-1.19-.46,1.13,1.13,0,0,1-.3-.87,5.52,5.52,0,0,1,.57-1.93l.84-1.89a2.77,2.77,0,0,1,.62-1,2.7,2.7,0,0,1,1.18-.15h4.64a2,2,0,0,1,.87.11,2.25,2.25,0,0,1,.42.82l.64,1.7a9.81,9.81,0,0,1,.78,2.71.78.78,0,0,1-.64.88l-.4.09c-.21,0-.32.13-.32.26s.11.26.33.26a2.52,2.52,0,0,0,.4-.05,18.68,18.68,0,0,1,2.23-.08q1.71,0,2.37.06l.49,0c.23,0,.35-.07.36-.21s-.12-.26-.39-.31a3.36,3.36,0,0,1-1.61-.6,6.22,6.22,0,0,1-1-1.93ZM164,88.68h-4.22c-.39,0-.59-.11-.59-.34a1.52,1.52,0,0,1,.17-.47l2.5-5.55c.08-.17.14-.25.21-.24s.23.15.33.42l.1.27,2,5.08.07.23a1.17,1.17,0,0,1,.06.29C164.68,88.58,164.47,88.68,164,88.68Z"/><path class="a" d="M194.35,80.16a1.6,1.6,0,0,0-.15-.91c-.1-.1-.38-.15-.85-.15h-13.8a.68.68,0,0,0-.57.19,1.47,1.47,0,0,0-.13.77,7.67,7.67,0,0,1-.19,1.52,5.87,5.87,0,0,0-.15,1c0,.22.08.34.23.35s.27-.15.35-.49a3,3,0,0,1,.72-1.57,2.24,2.24,0,0,1,1.51-.42h3.4a1,1,0,0,1,.62.13.87.87,0,0,1,.14.59V94.21a2.4,2.4,0,0,1-.35,1.49,2,2,0,0,1-1.33.55c-.28,0-.42.12-.42.25s.13.28.39.28l.86-.08a8.61,8.61,0,0,1,.91,0h1.94a9.67,9.67,0,0,1,1.16,0,5,5,0,0,0,.63.08c.24,0,.36-.09.36-.28s-.15-.24-.45-.29a1.77,1.77,0,0,1-1.68-1.78V81.34a1.22,1.22,0,0,1,.15-.76,1.06,1.06,0,0,1,.71-.15h3.6a2.63,2.63,0,0,1,1.45.28,1.87,1.87,0,0,1,.54,1.18q.08.41.31.4c.19,0,.28-.15.27-.41s0-.34-.08-.62A6.7,6.7,0,0,1,194.35,80.16Z"/><path class="a" d="M204,79.51a2.21,2.21,0,0,1,1.56.74A4.3,4.3,0,0,1,206,82.4v11a5.15,5.15,0,0,1-.28,2.14,1.66,1.66,0,0,1-1.26.67c-.26,0-.4.14-.4.29s.11.26.35.26.37,0,.62,0l1.51-.09,1.86,0a11.79,11.79,0,0,1,1.36.05,3.44,3.44,0,0,0,.49,0c.26,0,.4-.1.4-.3s-.21-.26-.64-.31a2.75,2.75,0,0,1-1.18-.38,2,2,0,0,1-.63-.93,8.18,8.18,0,0,1-.22-2.38V82.83q0-2.71.95-3.07l.67-.26c.22-.08.33-.19.33-.34s-.11-.24-.34-.24l-.32,0-.86.07c-.45,0-1,0-1.63,0a21.53,21.53,0,0,1-2.49-.11l-.23,0c-.26,0-.38.09-.37.28S203.78,79.46,204,79.51Z"/><path class="a" d="M229.81,78.75a10.27,10.27,0,0,0-3.78.72,8.6,8.6,0,0,0-3.05,2,8.49,8.49,0,0,0-1.81,2.9,9.62,9.62,0,0,0-.67,3.5,8.81,8.81,0,0,0,2.56,6.58,9.15,9.15,0,0,0,6.7,2.51,8.91,8.91,0,0,0,6.63-2.62A9.18,9.18,0,0,0,239,87.58a8.43,8.43,0,0,0-2.57-6.35A9.08,9.08,0,0,0,229.81,78.75ZM235.15,94a6.3,6.3,0,0,1-4.91,2.17,6.92,6.92,0,0,1-5.5-2.66A9.81,9.81,0,0,1,222.51,87a7.92,7.92,0,0,1,1.75-5.4,6,6,0,0,1,4.73-2,7.5,7.5,0,0,1,5.79,2.55,9.13,9.13,0,0,1,2.32,6.38A7.94,7.94,0,0,1,235.15,94Z"/><path class="a" d="M266,78.94a3.57,3.57,0,0,0-.63.08,8.37,8.37,0,0,1-1.27.08,23.63,23.63,0,0,1-2.37-.09l-.54,0c-.25,0-.37.08-.37.24s.12.27.37.31a3.71,3.71,0,0,1,1.83.67,2.39,2.39,0,0,1,.63,1.54l.15,2.95v8.08c0,.15-.05.23-.14.24s-.17-.09-.36-.31L251.54,79.34a.89.89,0,0,0-.64-.37h-.68l-.86,0h-.73c-.19,0-.28.08-.28.24s.12.26.35.29a2.65,2.65,0,0,1,2,1.46,7.27,7.27,0,0,1,.71,3.5v8.72a4,4,0,0,1-.38,2,2.63,2.63,0,0,1-1.46,1c-.25.08-.37.19-.36.31s.14.24.36.24a3.66,3.66,0,0,0,.47,0,7.32,7.32,0,0,1,.95-.06l.61,0,1.31.06,1.11.08.39,0c.18,0,.27-.08.27-.25s-.14-.29-.42-.33a2.67,2.67,0,0,1-1.36-.47,1.84,1.84,0,0,1-.44-1.17l0-.91V84.37c0-.39.08-.58.24-.58a.25.25,0,0,1,.18.08L253,84l10.81,12.36.28.33a.45.45,0,0,0,.29.12.33.33,0,0,0,.36-.3,13.48,13.48,0,0,0,.06-1.76V84l0-.85V81.77a3.83,3.83,0,0,1,.25-1.68,1.52,1.52,0,0,1,1-.64c.18-.05.26-.13.25-.24S266.26,78.94,266,78.94Z"/><path class="a" d="M0,0V112.49H289.92V0ZM289,111.57H.92V.92H289Z"/></svg>
